{"title":"Madeas Big Happy Family 2011 PPVRIP IFLIX","uid":6523366,"size":1765059271,"categoryP":"video","categoryS":"movies","magnet":"?xt=urn:btih:967033d676a3e2de9ae1d6a73adb657d4b86687d&amp;dn=Madeas+Big+Happy+Family+2011+PPVRIP+IFLIX&amp;tr=udp%3A%2F%2Ftracker.openbittorrent.com%3A80&amp;tr=udp%3A%2F%2Fopen.demonii.com%3A1337&amp;tr=udp%3A%2F%2Ftracker.coppersurfer.tk%3A6969&amp;tr=udp%3A%2F%2Fexodus.desync.com%3A6969","seeders":2,"leechers":0,"uploader":"IwannaFan2","files":7,"time":1310073474,"description":"Madeas Big Happy Family 2011 PPVRIP IFLIX &lt;a href=&quot;\nhttp://www.imdb.com/title/tt1787759/&quot; rel=&quot;nofollow&quot; target=&quot;_NEW&quot;&gt;\nhttp://www.imdb.com/title/tt1787759/&lt;/a&gt;\n\nLanguage                         : English\n\nFormat                           : AVI\nFormat/Info                      : Audio Video Interleave\nFormat profile                   : OpenDML\nFile size                        : 1.64 GiB\nDuration                         : 1h 46mn\nOverall bit rate                 : 2 208 Kbps\n\nVideo\nID                               : 0\nFormat                           : MPEG-4 Visual\nFormat profile                   : Simple@L3\nFormat settings, BVOP            : No\nFormat settings, QPel            : No\nFormat settings, GMC             : No warppoints\nFormat settings, Matrix          : Default (H.263)\nCodec ID                         : XVID\nCodec ID/Hint                    : XviD\nDuration                         : 1h 46mn\nBit rate                         : 2 062 Kbps\nWidth                            : 720 pixels\nHeight                           : 480 pixels\nDisplay aspect ratio             : 3:2\nFrame rate                       : 29.970 fps\nOriginal frame rate              : 29.000 fps\nStandard                         : NTSC\nColor space                      : YUV\nChroma subsampling               : 4:2:0\nBit depth                        : 8 bits\nScan type                        : Progressive\nCompression mode                 : Lossy\nBits/(Pixel*Frame)               : 0.199\nStream size                      : 1.53 GiB (93%)\nWriting library                  : XviD 1.2.1 (UTC 2008-12-04)\n\nAudio\nID                               : 1\nFormat                           : MPEG Audio\nFormat version                   : Version 1\nFormat profile                   : Layer 3\nMode                             : Joint stereo\nMode extension                   : MS Stereo\nCodec ID                         : 55\nCodec ID/Hint                    : MP3\nDuration                         : 1h 46mn\nBit rate mode                    : Constant\nBit rate                         : 128 Kbps\nChannel(s)                       : 2 channels\nSampling rate                    : 44.1 KHz\nCompression mode                 : Lossy\nStream size                      : 39.9 MiB (2%)\nAlignment                        : Aligned on interleaves\nInterleave, duration             : 64 ms (1.91 video frames)\nWriting library                  : LAME3.98.2\n\nRelease notes...\n\nAnother quality release from IFLIX\nMore to come very soon!\n\nVideo source: Ours\nAudio source: Ours\n\nGreetings to all other groups out there. You all do awesome work and we greatly appreciate it.\nIFLIX :-)","torrent":{"xt":"urn:btih:967033d676a3e2de9ae1d6a73adb657d4b86687d","amp;dn":"Madeas+Big+Happy+Family+2011+PPVRIP+IFLIX","amp;tr":["udp%3A%2F%2Ftracker.openbittorrent.com%3A80","udp%3A%2F%2Fopen.demonii.com%3A1337","udp%3A%2F%2Ftracker.coppersurfer.tk%3A6969","udp%3A%2F%2Fexodus.desync.com%3A6969"],"infoHash":"967033d676a3e2de9ae1d6a73adb657d4b86687d","infoHashBuffer":{"type":"Buffer","data":[150,112,51,214,118,163,226,222,154,225,214,167,58,219,101,125,75,134,104,125]},"announce":[],"urlList":[]}}